<svg width="250" height="250" viewBox="0 0 250 250" fill="none" xmlns="http://www.w3.org/2000/svg">
<rect width="250" height="250" fill="#1C1C1C"/>
<path d="M72.914 161.281H83.3681V86.0115H72.914V81.352H141.194C146.65 81.352 151.509 81.7901 155.77 82.6662C160.071 83.5424 163.675 84.8964 166.582 86.7284C169.529 88.5205 171.76 90.8104 173.273 93.5982C174.826 96.3859 175.603 99.6715 175.603 103.455C175.603 106.76 174.926 109.707 173.572 112.296C172.257 114.885 169.987 117.075 166.762 118.867C163.576 120.659 159.294 122.053 153.918 123.049C148.581 124.005 141.911 124.502 133.906 124.542C141.074 124.582 147.188 124.94 152.245 125.617C157.303 126.255 161.425 127.39 164.611 129.023C167.837 130.616 170.187 132.786 171.66 135.534C173.134 138.242 173.87 141.687 173.87 145.868C173.87 147.023 173.85 148.019 173.811 148.855C173.811 149.652 173.791 150.608 173.751 151.723C173.671 152.878 173.631 153.774 173.631 154.411C173.631 155.008 173.631 155.705 173.631 156.502C173.631 157.736 173.791 158.672 174.109 159.309C174.468 159.947 175.045 160.265 175.842 160.265C177.156 160.265 178.112 158.991 178.709 156.442C179.306 153.893 179.605 150.209 179.605 145.391H184.623V147.302C184.623 151.245 184.245 154.57 183.488 157.278C182.771 159.986 181.457 162.177 179.545 163.849C177.674 165.522 175.145 166.717 171.959 167.434C168.773 168.19 164.731 168.569 159.832 168.569C155.133 168.569 151.23 168.071 148.123 167.075C145.017 166.119 142.528 164.686 140.656 162.774C138.824 160.863 137.53 158.493 136.773 155.665C136.017 152.838 135.638 149.572 135.638 145.868C135.638 141.806 135.419 138.481 134.981 135.892C134.583 133.304 133.946 131.273 133.07 129.799C132.193 128.286 131.039 127.25 129.605 126.693C128.211 126.135 126.538 125.856 124.587 125.856V161.281H134.981V166H72.914V161.281ZM124.587 121.137C126.737 121.137 128.609 120.878 130.202 120.361C131.795 119.843 133.109 118.927 134.145 117.613C135.22 116.298 136.017 114.506 136.534 112.236C137.052 109.926 137.311 106.999 137.311 103.455C137.311 99.9104 137.052 97.0231 136.534 94.7929C136.017 92.5229 135.22 90.7507 134.145 89.4763C133.109 88.1621 131.795 87.266 130.202 86.7881C128.609 86.2704 126.737 86.0115 124.587 86.0115V121.137Z" fill="black"/>
<path d="M68.914 156.281H79.3681V81.0115H68.914V76.352H137.194C142.65 76.352 147.509 76.7901 151.77 77.6662C156.071 78.5424 159.675 79.8964 162.582 81.7284C165.529 83.5205 167.76 85.8104 169.273 88.5982C170.826 91.3859 171.603 94.6715 171.603 98.4549C171.603 101.76 170.926 104.707 169.572 107.296C168.257 109.885 165.987 112.075 162.762 113.867C159.576 115.659 155.294 117.053 149.918 118.049C144.581 119.005 137.911 119.502 129.906 119.542C137.074 119.582 143.188 119.94 148.245 120.617C153.303 121.255 157.425 122.39 160.611 124.023C163.837 125.616 166.187 127.786 167.66 130.534C169.134 133.242 169.87 136.687 169.87 140.868C169.87 142.023 169.85 143.019 169.811 143.855C169.811 144.652 169.791 145.608 169.751 146.723C169.671 147.878 169.631 148.774 169.631 149.411C169.631 150.008 169.631 150.705 169.631 151.502C169.631 152.736 169.791 153.672 170.109 154.309C170.468 154.947 171.045 155.265 171.842 155.265C173.156 155.265 174.112 153.991 174.709 151.442C175.306 148.893 175.605 145.209 175.605 140.391H180.623V142.302C180.623 146.245 180.245 149.57 179.488 152.278C178.771 154.986 177.457 157.177 175.545 158.849C173.674 160.522 171.145 161.717 167.959 162.434C164.773 163.19 160.731 163.569 155.832 163.569C151.133 163.569 147.23 163.071 144.123 162.075C141.017 161.119 138.528 159.686 136.656 157.774C134.824 155.863 133.53 153.493 132.773 150.665C132.017 147.838 131.638 144.572 131.638 140.868C131.638 136.806 131.419 133.481 130.981 130.892C130.583 128.304 129.946 126.273 129.07 124.799C128.193 123.286 127.039 122.25 125.605 121.693C124.211 121.135 122.538 120.856 120.587 120.856V156.281H130.981V161H68.914V156.281ZM120.587 116.137C122.737 116.137 124.609 115.878 126.202 115.361C127.795 114.843 129.109 113.927 130.145 112.613C131.22 111.298 132.017 109.506 132.534 107.236C133.052 104.926 133.311 101.999 133.311 98.4549C133.311 94.9104 133.052 92.0231 132.534 89.7929C132.017 87.5229 131.22 85.7507 130.145 84.4763C129.109 83.1621 127.795 82.266 126.202 81.7881C124.609 81.2704 122.737 81.0115 120.587 81.0115V116.137Z" fill="white"/>
</svg>
